<?xml version="1.0" standalone="no"?>
<!DOCTYPE svg PUBLIC "-//W3C//DTD SVG 20010904//EN"
 "http://www.w3.org/TR/2001/REC-SVG-20010904/DTD/svg10.dtd">
<svg version="1.0" xmlns="http://www.w3.org/2000/svg"
 width="200.000000pt" height="200.000000pt" viewBox="0 0 200.000000 200.000000"
 preserveAspectRatio="xMidYMid meet">

<g transform="translate(0.000000,200.000000) scale(0.100000,-0.100000)"
fill="#000000" stroke="none">
<path d="M1060 1377 c-19 -6 -56 -32 -82 -58 -42 -42 -52 -47 -102 -51 -43 -4
-65 -12 -94 -35 -42 -34 -82 -97 -82 -130 0 -18 -6 -23 -26 -23 -33 0 -94 -29
-101 -47 -10 -26 -62 -44 -116 -41 l-52 3 0 -52 c1 -100 97 -190 215 -202 53
-5 61 -9 82 -41 64 -95 201 -117 285 -46 28 24 29 24 52 5 33 -27 121 -26 178
2 24 12 58 39 75 60 29 36 35 39 82 39 66 1 124 27 167 79 77 89 77 203 1 291
-40 47 -73 66 -141 81 -40 8 -50 15 -55 35 -4 14 -25 45 -47 69 -62 67 -151
90 -239 62z m160 -57 c44 -23 74 -61 87 -110 9 -33 12 -35 60 -41 111 -14 183
-85 183 -182 0 -88 -50 -153 -135 -176 -126 -33 -226 87 -149 178 24 29 27 61
5 61 -5 0 -22 -15 -39 -34 -56 -64 -54 -141 3 -202 19 -20 35 -40 35 -44 0
-17 -72 -70 -109 -81 -48 -14 -80 -7 -121 27 l-31 27 -32 -30 c-43 -41 -69
-53 -112 -53 -121 0 -198 150 -119 235 33 35 88 35 126 -2 20 -19 31 -24 39
-16 31 31 -36 93 -101 93 -72 0 -140 -72 -140 -148 0 -42 -16 -48 -82 -28 -53
15 -102 55 -127 103 -17 34 -13 43 18 43 43 0 82 17 119 53 25 25 44 33 85 37
l52 5 7 44 c14 81 82 151 147 151 18 0 21 -6 21 -49 0 -53 25 -99 72 -135 59
-43 171 -16 209 51 33 57 -4 73 -45 18 -69 -90 -196 -34 -183 81 12 115 147
180 257 124z"/>
</g>
</svg>
