<svg width="477" height="642" viewBox="0 0 477 642" fill="none" xmlns="http://www.w3.org/2000/svg">
<path d="M467.561 151.9H330.123C327.693 151.9 325.363 150.962 323.645 149.293C321.926 147.624 320.961 145.36 320.961 143V9.49998C320.961 7.13955 321.926 4.8758 323.645 3.20673C325.363 1.53765 327.693 0.599976 330.123 0.599976C332.553 0.599976 334.884 1.53765 336.602 3.20673C338.321 4.8758 339.286 7.13955 339.286 9.49998V134.1H467.561C469.991 134.1 472.321 135.038 474.04 136.707C475.758 138.376 476.723 140.64 476.723 143C476.723 145.36 475.758 147.624 474.04 149.293C472.321 150.962 469.991 151.9 467.561 151.9Z" fill="#101010"/>
<path d="M421.748 641.4H55.2484C40.6682 641.4 26.6851 635.774 16.3752 625.759C6.06543 615.745 0.273438 602.163 0.273438 588V54C0.273438 39.8374 6.06543 26.2549 16.3752 16.2405C26.6851 6.22604 40.6682 0.59999 55.2484 0.59999H330.123C331.327 0.597901 332.52 0.826346 333.633 1.27227C334.746 1.71819 335.758 2.37284 336.61 3.19879L474.048 136.699C474.898 137.527 475.572 138.51 476.031 139.591C476.49 140.672 476.726 141.83 476.723 143V588C476.723 602.163 470.931 615.745 460.622 625.759C450.312 635.774 436.329 641.4 421.748 641.4ZM55.2484 18.4C45.5283 18.4 36.2062 22.1507 29.333 28.827C22.4598 35.5033 18.5984 44.5583 18.5984 54V588C18.5984 597.442 22.4598 606.497 29.333 613.173C36.2062 619.849 45.5283 623.6 55.2484 623.6H421.748C431.469 623.6 440.791 619.849 447.664 613.173C454.537 606.497 458.398 597.442 458.398 588V146.685L326.33 18.4H55.2484Z" fill="#101010"/>
<path d="M367.604 442.734V532.965H105.396V442.734H55V559.489C55 574.128 66.2659 586 80.2356 586H392.764C406.722 586 418 574.141 418 559.489V442.734H367.604Z" fill="black"/>
<path d="M231.885 433.787L159.733 342.014C159.733 342.014 148.755 331.104 160.659 331.104C172.564 331.104 201.317 331.104 201.317 331.104C201.317 331.104 201.317 323.765 201.317 312.446C201.317 280.177 201.317 221.45 201.317 197.509C201.317 197.509 199.702 191 209.015 191C218.403 191 259.524 191 266.246 191C272.955 191 272.805 196.481 272.805 196.481C272.805 219.698 272.805 280.454 272.805 311.669C272.805 321.788 272.805 328.35 272.805 328.35C272.805 328.35 295.863 328.35 310.333 328.35C324.779 328.35 313.901 339.774 313.901 339.774C313.901 339.774 252.514 425.552 243.952 434.551C237.793 441.074 231.885 433.787 231.885 433.787Z" fill="black"/>
</svg>
